<?xml version="1.0" encoding="UTF-8"?>
<svg width="933" height="622" xmlns="http://www.w3.org/2000/svg">

 <g>
  <title>Layer 1</title>
  <path id="svg_2" fill="#000000" fill-rule="evenodd" stroke="#010101" stroke-width="1px" d="m808.125305,211.18573l-1.300842,0l0,1.521072l-1.300903,0l0,0l0,1.521103l0,0l0,0l-1.300781,0l0,0l0,1.521088l-1.300903,0l0,0l0,1.521088l-2.601746,0l-1.300842,0l0,-1.521088l1.300842,-1.521088l0,-1.521103l0,-1.521072l1.300842,0l0,0l0,-1.521072l1.300903,0l0,0l0,-1.521057l0,0l0,0l1.300903,-1.521103l1.300781,-1.521088l0,0l0,0l0,-1.521072q0,0 3.90271,-3.042175q2.601685,-4.563232 13.008606,-10.647568q10.406982,-6.084335 22.114807,-6.084335q13.008667,0 20.813843,4.563248q9.10614,4.563263 19.513062,13.689743q9.106079,9.12648 18.212158,22.816223q9.106079,13.689743 13.008728,28.900604q3.902527,16.731857 3.902527,33.46373q0,18.253052 -3.902527,33.463867q-3.902649,16.731873 -14.30957,33.463806q-7.805237,16.731903 -18.212219,27.379486q-10.406921,10.647552 -27.318298,21.295166q-16.911133,12.168579 -39.02594,18.25293q-22.114807,9.126556 -48.132202,12.168701q-24.71637,3.042175 -57.23822,0q-33.822449,0 -70.246887,-9.126526q-36.424316,-9.126526 -67.645081,-21.295105q-31.220886,-12.168701 -54.636597,-27.379486q-22.114685,-15.210876 -33.82251,-27.379486q-13.008667,-12.168701 -15.610413,-13.689758q-2.601746,-1.521057 -7.805237,3.042145q-3.902618,4.563232 -20.813904,19.774109q-16.911255,15.210785 -40.326874,27.379486q-23.415649,12.16861 -55.937378,24.337311q-31.220825,12.16861 -70.246887,19.774017q-39.026062,7.605469 -65.043396,9.126495q-24.716537,1.521057 -36.424362,-1.521027q-11.707779,0 -36.424301,-7.605469q-26.01738,-7.605408 -44.22953,-16.731934q-16.911293,-9.126404 -28.61911,-18.25296q-11.707821,-12.16861 -20.813889,-25.858368q-10.406952,-15.210815 -15.61043,-33.463806q-5.20347,-18.25296 -6.504341,-38.027069q-1.300871,-18.252991 1.300871,-30.421631q2.601738,-10.647568 7.805208,-25.858414q7.805216,-15.210815 11.707819,-19.774048q5.203484,-6.084335 5.203484,-7.605438q0,-1.521072 2.601719,-3.042145q2.601738,-1.521057 14.309559,-9.126495q11.707817,-7.605392 26.017365,-7.605392q15.61042,0 26.01738,4.563217l10.406937,4.563263l0,1.521088l0,0l1.300873,0l0,1.521072l0,0l1.300865,0l0,0l0,0l1.300873,1.521088l1.300858,1.521103l0,0l0,0l1.300873,0l0,0l0,1.521057l1.300873,0l0,1.521072l0,1.521072l-2.601746,0l-3.902596,-1.521072l-1.300873,0l-1.300858,0l0,-1.521072l-1.300865,0l0,0l0,-1.521057l-5.203468,0q-3.902611,-3.042191 -14.309563,-1.521103q-10.406952,1.521103 -18.212151,7.605408q-6.504341,7.605438 -11.707825,18.252991q-5.203484,10.647583 -5.203484,30.421631q0,21.295135 5.203484,28.900574q3.902611,7.605408 10.406937,12.168671q6.504349,4.563202 18.212166,4.563202q13.00869,0 31.22084,-9.126465q19.513016,-9.126495 49.433014,-28.900574q31.220825,-19.774063 61.140793,-41.069199q31.220901,-21.295135 53.335648,-33.463806q23.415619,-12.168671 39.026001,-15.210815q16.911316,-6.084351 37.72522,-4.563263q20.813904,1.521072 40.326935,7.605408q19.513031,9.126511 33.822601,19.774078q15.610382,10.647568 16.911255,12.168655q1.300873,1.521088 15.610413,-10.647583q14.30957,-12.16864 33.82254,-18.252991q19.513062,-9.126495 28.619141,-9.126495q9.106079,-3.04216 32.521729,-1.521072q23.415588,1.521072 41.627747,6.084335q16.911316,4.563232 41.627869,19.774063q24.716431,15.210831 71.547729,51.716827q46.831238,36.505936 63.742554,42.590256q15.610413,9.126526 29.919983,9.126526q14.309631,0 24.716431,-6.084351q10.406982,-6.08432 15.610474,-12.168701q5.203552,-7.605377 5.203552,-25.858337q0,-18.252991 -5.203552,-28.900574q-5.203491,-10.647552 -11.707764,-18.252991q-6.504333,-6.084305 -11.707825,-9.126495q-6.504333,-3.04216 -15.610413,-3.04216q-7.805237,0 -13.008728,4.563248q-3.902527,4.563232 -5.203491,4.563232z"/>
 </g>
</svg>